<?xml version="1.0" encoding="UTF-8" standalone="no"?>
<!-- Created with Inkscape (http://www.inkscape.org/) -->

<svg
   xmlns:dc="http://purl.org/dc/elements/1.1/"
   xmlns:cc="http://creativecommons.org/ns#"
   xmlns:rdf="http://www.w3.org/1999/02/22-rdf-syntax-ns#"
   xmlns:svg="http://www.w3.org/2000/svg"
   xmlns="http://www.w3.org/2000/svg"
   xmlns:sodipodi="http://sodipodi.sourceforge.net/DTD/sodipodi-0.dtd"
   xmlns:inkscape="http://www.inkscape.org/namespaces/inkscape"
   width="27.216"
   height="54"
   id="svg3004"
   version="1.1"
   inkscape:version="0.48.4 r9939"
   sodipodi:docname="New document 2">
  <defs
     id="defs3006" />
  <sodipodi:namedview
     id="base"
     pagecolor="#ffffff"
     bordercolor="#666666"
     borderopacity="1.0"
     inkscape:pageopacity="0.0"
     inkscape:pageshadow="2"
     inkscape:zoom="6.8449929"
     inkscape:cx="16.922709"
     inkscape:cy="20.177076"
     inkscape:document-units="px"
     inkscape:current-layer="layer1"
     showgrid="false"
     fit-margin-top="0"
     fit-margin-left="0"
     fit-margin-right="0"
     fit-margin-bottom="0"
     inkscape:window-width="1321"
     inkscape:window-height="744"
     inkscape:window-x="45"
     inkscape:window-y="24"
     inkscape:window-maximized="1" />
  <metadata
     id="metadata3009">
    <rdf:RDF>
      <cc:Work
         rdf:about="">
        <dc:format>image/svg+xml</dc:format>
        <dc:type
           rdf:resource="http://purl.org/dc/dcmitype/StillImage" />
        <dc:title></dc:title>
      </cc:Work>
    </rdf:RDF>
  </metadata>
  <g
     inkscape:label="Layer 1"
     inkscape:groupmode="layer"
     id="layer1"
     transform="translate(-383.53485,-419.6479)">
    <path
       inkscape:connector-curvature="0"
       d="m 410.75085,460.0399 c -3e-5,3.74401 -1.34403,6.96 -4.032,9.648 -2.64002,2.64 -5.83202,3.96 -9.576,3.96 -3.69601,0 -6.88801,-1.32 -9.576,-3.96 -2.688,-2.688 -4.032,-5.90399 -4.032,-9.648 l 0,-26.784 c 0,-3.69596 1.344,-6.88796 4.032,-9.576 2.68799,-2.68795 5.87999,-4.03195 9.576,-4.032 3.74398,5e-5 6.93598,1.34405 9.576,4.032 2.68797,2.68804 4.03197,5.88004 4.032,9.576 l 0,9.504 c -3e-5,0.91203 -0.28803,1.60803 -0.864,2.088 -0.57603,0.48003 -1.20003,0.72003 -1.872,0.72 -0.67203,3e-5 -1.29603,-0.23997 -1.872,-0.72 -0.57602,-0.47997 -0.86402,-1.17597 -0.864,-2.088 l 0,-9.504 c -2e-5,-2.20796 -0.79202,-4.10396 -2.376,-5.688 -1.58402,-1.63196 -3.50402,-2.44795 -5.76,-2.448 -2.20801,5e-5 -4.12801,0.81604 -5.76,2.448 -1.58401,1.58404 -2.37601,3.48004 -2.376,5.688 l 0,26.784 c -10e-6,2.20801 0.79199,4.12801 2.376,5.76 1.63199,1.584 3.55199,2.376 5.76,2.376 2.20798,0 4.10398,-0.792 5.688,-2.376 1.63198,-1.63199 2.44798,-3.55199 2.448,-5.76 -2e-5,-0.95999 0.28798,-1.67999 0.864,-2.16 0.57597,-0.47999 1.19997,-0.71999 1.872,-0.72 0.67197,1e-5 1.29597,0.24001 1.872,0.72 0.57597,0.48001 0.86397,1.20001 0.864,2.16 l 0,0 m -3.024,-0.792 c -3e-5,10e-6 -3e-5,10e-6 0,0 -3e-5,-0.048 -3e-5,-0.096 0,-0.144 -3e-5,-0.096 -0.048,-0.16799 -0.144,-0.216 -0.048,-0.096 -0.16803,-0.14399 -0.36,-0.144 -0.19203,1e-5 -0.33603,0.048 -0.432,0.144 -0.048,0.048 -0.072,0.12001 -0.072,0.216 -3e-5,0.048 -3e-5,0.096 0,0.144 -3e-5,10e-6 -3e-5,10e-6 0,0 -3e-5,2.83201 -1.03202,5.28001 -3.096,7.344 -2.01602,2.016 -4.44002,3.024 -7.272,3.024 -2.83201,0 -5.28001,-1.008 -7.344,-3.024 -2.01601,-2.06399 -3.024,-4.51199 -3.024,-7.344 l 0,-26.712 c 0,-2.83196 1.00799,-5.25596 3.024,-7.272 2.06399,-2.06395 4.51199,-3.09595 7.344,-3.096 2.83198,5e-5 5.25598,1.03205 7.272,3.096 2.06398,2.01604 3.09597,4.44004 3.096,7.272 l 0,9.432 c -3e-5,3e-5 -3e-5,0.024 0,0.072 -3e-5,3e-5 -3e-5,0.024 0,0.072 -3e-5,0.096 0.024,0.19203 0.072,0.288 0.096,0.048 0.23997,0.072 0.432,0.072 0.19197,3e-5 0.31197,-0.024 0.36,-0.072 0.096,-0.096 0.14397,-0.19197 0.144,-0.288 -3e-5,-0.048 -3e-5,-0.072 0,-0.072 -3e-5,-0.048 -3e-5,-0.072 0,-0.072 l 0,-9.432 c -3e-5,-3.11996 -1.12803,-5.80796 -3.384,-8.064 -2.20802,-2.25595 -4.87202,-3.38395 -7.992,-3.384 -3.12001,5e-5 -5.80801,1.12805 -8.064,3.384 -2.208,2.25604 -3.312,4.94404 -3.312,8.064 l 0,26.712 c 0,3.12001 1.104,5.80801 3.312,8.064 2.25599,2.256 4.94399,3.384 8.064,3.384 3.11998,0 5.78398,-1.128 7.992,-3.384 2.25597,-2.25599 3.38397,-4.94399 3.384,-8.064 l 0,0"
       style="font-size:40px;font-style:normal;font-weight:normal;line-height:125%;letter-spacing:0px;word-spacing:0px;fill:#ffffff;fill-opacity:1;stroke:none;font-family:Sans"
       id="path4028" />
  </g>
</svg>
