<?xml version="1.0" encoding="UTF-8" standalone="no"?>
<!-- Created with Inkscape (http://www.inkscape.org/) -->

<svg
   xmlns:dc="http://purl.org/dc/elements/1.1/"
   xmlns:cc="http://creativecommons.org/ns#"
   xmlns:rdf="http://www.w3.org/1999/02/22-rdf-syntax-ns#"
   xmlns:svg="http://www.w3.org/2000/svg"
   xmlns="http://www.w3.org/2000/svg"
   xmlns:sodipodi="http://sodipodi.sourceforge.net/DTD/sodipodi-0.dtd"
   xmlns:inkscape="http://www.inkscape.org/namespaces/inkscape"
   width="112.90925"
   height="54.349892"
   id="svg3007"
   version="1.1"
   inkscape:version="0.48.4 r9939"
   sodipodi:docname="New document 2">
  <defs
     id="defs3009" />
  <sodipodi:namedview
     id="base"
     pagecolor="#ffffff"
     bordercolor="#666666"
     borderopacity="1.0"
     inkscape:pageopacity="0.0"
     inkscape:pageshadow="2"
     inkscape:zoom="0.35"
     inkscape:cx="-8.54538"
     inkscape:cy="-172.82505"
     inkscape:document-units="px"
     inkscape:current-layer="layer1"
     showgrid="false"
     fit-margin-top="0"
     fit-margin-left="0"
     fit-margin-right="0"
     fit-margin-bottom="0"
     inkscape:window-width="1321"
     inkscape:window-height="744"
     inkscape:window-x="45"
     inkscape:window-y="24"
     inkscape:window-maximized="1" />
  <metadata
     id="metadata3012">
    <rdf:RDF>
      <cc:Work
         rdf:about="">
        <dc:format>image/svg+xml</dc:format>
        <dc:type
           rdf:resource="http://purl.org/dc/dcmitype/StillImage" />
        <dc:title></dc:title>
      </cc:Work>
    </rdf:RDF>
  </metadata>
  <g
     inkscape:label="Layer 1"
     inkscape:groupmode="layer"
     id="layer1"
     transform="translate(-383.54538,-305.18724)">
    <path
       inkscape:connector-curvature="0"
       d="m 410.76138,345.7177 c -3e-5,3.74401 -1.34404,6.96 -4.032,9.648 -2.64003,2.64 -5.83202,3.96 -9.576,3.96 -3.69601,0 -6.88801,-1.32 -9.576,-3.96 -2.688,-2.688 -4.032,-5.90399 -4.032,-9.648 l 0,-26.784 c 0,-3.69596 1.344,-6.88796 4.032,-9.576 2.68799,-2.68795 5.87999,-4.03195 9.576,-4.032 3.74398,5e-5 6.93597,1.34405 9.576,4.032 2.68796,2.68804 4.03197,5.88004 4.032,9.576 l 0,9.504 c -3e-5,0.91203 -0.28803,1.60803 -0.86401,2.088 -0.57602,0.48003 -1.20002,0.72003 -1.87199,0.72 -0.67203,3e-5 -1.29603,-0.23997 -1.872,-0.72 -0.57603,-0.47997 -0.86402,-1.17597 -0.864,-2.088 l 0,-9.504 c -2e-5,-2.20796 -0.79202,-4.10396 -2.376,-5.688 -1.58402,-1.63196 -3.50403,-2.44795 -5.76,-2.448 -2.20801,5e-5 -4.12801,0.81604 -5.76,2.448 -1.58401,1.58404 -2.37601,3.48004 -2.376,5.688 l 0,26.784 c -10e-6,2.20801 0.79199,4.12801 2.376,5.76 1.63199,1.584 3.55199,2.376 5.76,2.376 2.20798,0 4.10398,-0.792 5.688,-2.376 1.63198,-1.63199 2.44798,-3.55199 2.448,-5.76 -2e-5,-0.95999 0.28797,-1.67999 0.864,-2.16 0.57597,-0.47999 1.19997,-0.71999 1.872,-0.72 0.67197,1e-5 1.29597,0.24001 1.87199,0.72 0.57598,0.48001 0.86397,1.20001 0.86401,2.16 l 0,0 m -3.024,-0.792 c -3e-5,10e-6 -3e-5,10e-6 0,0 -3e-5,-0.048 -3e-5,-0.096 0,-0.144 -3e-5,-0.096 -0.048,-0.16799 -0.144,-0.216 -0.048,-0.096 -0.16803,-0.14399 -0.36,-0.144 -0.19203,1e-5 -0.33603,0.048 -0.432,0.144 -0.048,0.048 -0.072,0.12001 -0.072,0.216 -3e-5,0.048 -3e-5,0.096 0,0.144 -3e-5,10e-6 -3e-5,10e-6 0,0 -3e-5,2.83201 -1.03202,5.28001 -3.096,7.344 -2.01602,2.016 -4.44002,3.024 -7.272,3.024 -2.83201,0 -5.28001,-1.008 -7.344,-3.024 -2.01601,-2.06399 -3.024,-4.51199 -3.024,-7.344 l 0,-26.712 c 0,-2.83196 1.00799,-5.25596 3.024,-7.272 2.06399,-2.06395 4.51199,-3.09595 7.344,-3.096 2.83198,5e-5 5.25598,1.03205 7.272,3.096 2.06398,2.01604 3.09597,4.44004 3.096,7.272 l 0,9.432 c -3e-5,3e-5 -3e-5,0.024 0,0.072 -3e-5,3e-5 -3e-5,0.024 0,0.072 -3e-5,0.096 0.024,0.19203 0.072,0.288 0.096,0.048 0.23997,0.072 0.432,0.072 0.19197,3e-5 0.31197,-0.024 0.36,-0.072 0.096,-0.096 0.14397,-0.19197 0.144,-0.288 -3e-5,-0.048 -3e-5,-0.072 0,-0.072 -3e-5,-0.048 -3e-5,-0.072 0,-0.072 l 0,-9.432 c -3e-5,-3.11996 -1.12803,-5.80796 -3.384,-8.064 -2.20802,-2.25595 -4.87203,-3.38395 -7.99201,-3.384 -3.12,5e-5 -5.808,1.12805 -8.06399,3.384 -2.208,2.25604 -3.312,4.94404 -3.312,8.064 l 0,26.712 c 0,3.12001 1.104,5.80801 3.312,8.064 2.25599,2.256 4.94399,3.384 8.06399,3.384 3.11998,0 5.78399,-1.128 7.99201,-3.384 2.25597,-2.25599 3.38397,-4.94399 3.384,-8.064 l 0,0"
       style="font-size:40px;font-style:normal;font-weight:normal;line-height:125%;letter-spacing:0px;word-spacing:0px;fill:#7986cb;fill-opacity:1;stroke:none;font-family:Sans"
       id="path4028" />
    <path
       d="m 435.9549,356.59524 c -2e-5,0.672 -0.24003,1.296 -0.72,1.872 -0.48002,0.576 -1.20002,0.864 -2.16,0.864 l -10.94401,0 c -2.352,0 -4.368,-0.84 -6.048,-2.52 -1.67999,-1.68 -2.51999,-3.696 -2.51999,-6.048 l 0,-42.696 c 0,-0.95995 0.288,-1.67995 0.864,-2.16 0.576,-0.47995 1.2,-0.71995 1.872,-0.72 0.672,5e-5 1.29599,0.24005 1.872,0.72 0.57599,0.48005 0.86399,1.20005 0.86399,2.16 l 0,42.696 c 0,0.816 0.312,1.536 0.93601,2.16 0.62399,0.624 1.34398,0.936 2.15999,0.936 l 10.94401,0 c 0.95998,0 1.67998,0.288 2.16,0.864 0.47997,0.576 0.71998,1.2 0.72,1.872 l 0,0 m -3.168,-0.792 c -3e-5,-0.24 -0.048,-0.384 -0.144,-0.432 -0.096,-0.048 -0.21602,-0.072 -0.36,-0.072 l -10.944,0 c -1.48801,0 -2.76001,-0.504 -3.816,-1.512 -1.008,-1.056 -1.51201,-2.328 -1.51201,-3.816 l 0,-42.624 c 0,-0.14395 -0.024,-0.26395 -0.072,-0.36 -0.048,-0.14395 -0.19199,-0.21595 -0.43199,-0.216 -0.288,5e-5 -0.456,0.072 -0.504,0.216 -0.048,0.096 -0.072,0.21605 -0.072,0.36 l 0,42.624 c 0,1.728 0.624,3.24 1.872,4.536 1.29599,1.248 2.80799,1.872 4.536,1.872 l 10.944,0 c 0.14398,0 0.26398,-0.024 0.36,-0.072 0.096,-0.048 0.14397,-0.216 0.144,-0.504 l 0,0"
       style="font-size:40px;font-style:normal;font-weight:normal;line-height:125%;letter-spacing:0px;word-spacing:0px;fill:#7986cb;fill-opacity:1;stroke:none;font-family:Sans"
       id="path4030"
       inkscape:connector-curvature="0" />
    <path
       d="m 466.66433,345.92913 c -3e-5,3.74401 -1.34403,6.96 -4.032,9.648 -2.64002,2.64 -5.83202,3.96 -9.576,3.96 -3.69601,0 -6.88801,-1.32 -9.576,-3.96 -2.688,-2.688 -4.032,-5.90399 -4.032,-9.648 l 0,-26.784 c 0,-3.69596 1.344,-6.88796 4.032,-9.576 2.68798,-2.68795 5.87999,-4.03195 9.576,-4.032 3.74398,5e-5 6.93598,1.34405 9.576,4.032 2.68797,2.68804 4.03197,5.88004 4.032,9.576 l 0,26.784 0,0 m -3.024,-0.792 0,-26.712 c -3e-5,-3.11996 -1.12802,-5.80796 -3.384,-8.064 -2.20802,-2.25595 -4.87202,-3.38395 -7.992,-3.384 -3.12002,5e-5 -5.80801,1.12805 -8.064,3.384 -2.208,2.25604 -3.31201,4.94404 -3.31201,8.064 l 0,26.712 c 0,3.12001 1.10401,5.80801 3.31201,8.064 2.25599,2.256 4.94398,3.384 8.064,3.384 3.11998,0 5.78398,-1.128 7.992,-3.384 2.25598,-2.25599 3.38397,-4.94399 3.384,-8.064 l 0,0 m -1.008,0 c -3e-5,2.83201 -1.03202,5.28001 -3.096,7.344 -2.01603,2.016 -4.44002,3.024 -7.272,3.024 -2.83201,0 -5.28001,-1.008 -7.344,-3.024 -2.01602,-2.06399 -3.024,-4.51199 -3.024,-7.344 l 0,-26.712 c 0,-2.83196 1.00798,-5.25596 3.024,-7.272 2.06399,-2.06395 4.51199,-3.09595 7.344,-3.096 2.83198,5e-5 5.25597,1.03205 7.272,3.096 2.06398,2.01604 3.09596,4.44004 3.096,7.272 l 0,26.712 0,0 m -1.44,0.792 0,-26.784 c -2e-5,-2.20796 -0.79202,-4.10396 -2.37601,-5.688 -1.58401,-1.63196 -3.50401,-2.44795 -5.75999,-2.448 -2.20801,5e-5 -4.12802,0.81604 -5.76,2.448 -1.58401,1.58404 -2.37601,3.48004 -2.376,5.688 l 0,26.784 c -10e-6,2.20801 0.79199,4.12801 2.376,5.76 1.63198,1.584 3.55199,2.376 5.76,2.376 2.25598,0 4.17597,-0.792 5.75999,-2.376 1.58398,-1.63199 2.37599,-3.55199 2.37601,-5.76 l 0,0"
       style="font-size:40px;font-style:normal;font-weight:normal;line-height:125%;letter-spacing:0px;word-spacing:0px;fill:#5c6bc0;fill-opacity:1;stroke:none;font-family:Sans"
       id="path4032"
       inkscape:connector-curvature="0" />
    <path
       inkscape:connector-curvature="0"
       d="m 496.45463,308.0617 c -3e-5,0.67205 -0.24003,1.29605 -0.72,1.872 -0.48003,0.57605 -1.20003,0.86405 -2.16,0.864 l -7.272,0 0,45.792 c -2e-5,0.96 -0.28802,1.68 -0.86401,2.16 -0.57601,0.432 -1.2,0.648 -1.87199,0.648 -0.048,0 -0.096,0 -0.144,0 -2e-5,0 -0.024,0 -0.072,0 -0.62401,-0.048 -1.22401,-0.288 -1.8,-0.72 -0.52801,-0.48 -0.79201,-1.176 -0.792,-2.088 l 0,-45.792 -7.27201,0 c -0.95999,5e-5 -1.68,-0.28795 -2.15999,-0.864 -0.48,-0.57595 -0.72001,-1.19995 -0.72001,-1.872 0,-0.67195 0.24001,-1.29595 0.72001,-1.872 0.48,-0.57595 1.2,-0.86395 2.15999,-0.864 l 20.08801,0 c 0.95997,5e-5 1.67996,0.28805 2.16,0.864 0.47997,0.57605 0.71997,1.20005 0.72,1.872 l 0,0 m -3.168,-0.72 c -3e-5,-0.28795 -0.048,-0.45595 -0.14401,-0.504 -0.096,-0.048 -0.21602,-0.072 -0.36,-0.072 l -20.088,0 c -0.144,5e-5 -0.26399,0.024 -0.35999,0.072 -0.096,0.048 -0.14401,0.21605 -0.14401,0.504 0,0.24005 0.048,0.38405 0.14401,0.432 0.096,0.048 0.21599,0.072 0.35999,0.072 l 9.504,0 0,47.952 c 0,0.144 0.024,0.288 0.072,0.432 0.048,0.096 0.216,0.144 0.50401,0.144 0.23999,0 0.38398,-0.048 0.432,-0.144 0.048,-0.144 0.072,-0.288 0.072,-0.432 l 0,-47.952 9.504,0 c 0.14397,5e-5 0.26397,-0.024 0.35999,-0.072 0.096,-0.048 0.14398,-0.19195 0.14401,-0.432 l 0,0"
       style="font-size:40px;font-style:normal;font-weight:normal;line-height:125%;letter-spacing:0px;word-spacing:0px;fill:#3f51b5;fill-opacity:1;stroke:none;font-family:Sans"
       id="path4036" />
  </g>
</svg>
