<?xml version="1.0" encoding="UTF-8" standalone="no"?>
<!-- Created with Inkscape (http://www.inkscape.org/) -->

<svg
   xmlns:dc="http://purl.org/dc/elements/1.1/"
   xmlns:cc="http://creativecommons.org/ns#"
   xmlns:rdf="http://www.w3.org/1999/02/22-rdf-syntax-ns#"
   xmlns:svg="http://www.w3.org/2000/svg"
   xmlns="http://www.w3.org/2000/svg"
   xmlns:sodipodi="http://sodipodi.sourceforge.net/DTD/sodipodi-0.dtd"
   xmlns:inkscape="http://www.inkscape.org/namespaces/inkscape"
   width="310.17801"
   height="54.355431"
   id="svg2"
   version="1.1"
   inkscape:version="0.48.4 r9939"
   sodipodi:docname="cloathboard.svg">
  <defs
     id="defs4" />
  <sodipodi:namedview
     id="base"
     pagecolor="#ffffff"
     bordercolor="#666666"
     borderopacity="1.0"
     inkscape:pageopacity="0.0"
     inkscape:pageshadow="2"
     inkscape:zoom="1"
     inkscape:cx="74.409363"
     inkscape:cy="-104.09193"
     inkscape:document-units="px"
     inkscape:current-layer="flowRoot2985"
     showgrid="false"
     inkscape:window-width="1321"
     inkscape:window-height="744"
     inkscape:window-x="45"
     inkscape:window-y="24"
     inkscape:window-maximized="1"
     fit-margin-top="0"
     fit-margin-left="0"
     fit-margin-right="0"
     fit-margin-bottom="0" />
  <metadata
     id="metadata7">
    <rdf:RDF>
      <cc:Work
         rdf:about="">
        <dc:format>image/svg+xml</dc:format>
        <dc:type
           rdf:resource="http://purl.org/dc/dcmitype/StillImage" />
        <dc:title></dc:title>
      </cc:Work>
    </rdf:RDF>
  </metadata>
  <g
     inkscape:label="Layer 1"
     inkscape:groupmode="layer"
     id="layer1"
     transform="translate(-101.13778,-278.20489)">
    <g
       transform="translate(-94.878219,-36.054914)"
       style="font-size:40px;font-style:normal;font-weight:normal;line-height:125%;letter-spacing:0px;word-spacing:0px;fill:#000000;fill-opacity:1;stroke:none;font-family:Sans"
       id="flowRoot2985">
      <path
         inkscape:connector-curvature="0"
         d="m 223.232,354.7958 c -3e-5,3.74401 -1.34403,6.96 -4.032,9.648 -2.64002,2.64 -5.83202,3.96 -9.576,3.96 -3.69601,0 -6.88801,-1.32 -9.576,-3.96 -2.688,-2.688 -4.032,-5.90399 -4.032,-9.648 l 0,-26.784 c 0,-3.69596 1.344,-6.88796 4.032,-9.576 2.68799,-2.68795 5.87999,-4.03195 9.576,-4.032 3.74398,5e-5 6.93598,1.34405 9.576,4.032 2.68797,2.68804 4.03197,5.88004 4.032,9.576 l 0,9.504 c -3e-5,0.91203 -0.28803,1.60803 -0.864,2.088 -0.57603,0.48003 -1.20003,0.72003 -1.872,0.72 -0.67203,3e-5 -1.29603,-0.23997 -1.872,-0.72 -0.57602,-0.47997 -0.86402,-1.17597 -0.864,-2.088 l 0,-9.504 c -2e-5,-2.20796 -0.79202,-4.10396 -2.376,-5.688 -1.58402,-1.63196 -3.50402,-2.44795 -5.76,-2.448 -2.20801,5e-5 -4.12801,0.81604 -5.76,2.448 -1.58401,1.58404 -2.37601,3.48004 -2.376,5.688 l 0,26.784 c -1e-5,2.20801 0.79199,4.12801 2.376,5.76 1.63199,1.584 3.55199,2.376 5.76,2.376 2.20798,0 4.10398,-0.792 5.688,-2.376 1.63198,-1.63199 2.44798,-3.55199 2.448,-5.76 -2e-5,-0.95999 0.28798,-1.67999 0.864,-2.16 0.57597,-0.47999 1.19997,-0.71999 1.872,-0.72 0.67197,1e-5 1.29597,0.24001 1.872,0.72 0.57597,0.48001 0.86397,1.20001 0.864,2.16 l 0,0 m -3.024,-0.792 c -3e-5,10e-6 -3e-5,10e-6 0,0 -3e-5,-0.048 -3e-5,-0.096 0,-0.144 -3e-5,-0.096 -0.048,-0.16799 -0.144,-0.216 -0.048,-0.096 -0.16803,-0.14399 -0.36,-0.144 -0.19203,1e-5 -0.33603,0.048 -0.432,0.144 -0.048,0.048 -0.072,0.12001 -0.072,0.216 -3e-5,0.048 -3e-5,0.096 0,0.144 -3e-5,10e-6 -3e-5,10e-6 0,0 -3e-5,2.83201 -1.03202,5.28001 -3.096,7.344 -2.01602,2.016 -4.44002,3.024 -7.272,3.024 -2.83201,0 -5.28001,-1.008 -7.344,-3.024 -2.01601,-2.06399 -3.024,-4.51199 -3.024,-7.344 l 0,-26.712 c 0,-2.83196 1.00799,-5.25596 3.024,-7.272 2.06399,-2.06395 4.51199,-3.09595 7.344,-3.096 2.83198,5e-5 5.25598,1.03205 7.272,3.096 2.06398,2.01604 3.09597,4.44004 3.096,7.272 l 0,9.432 c -3e-5,3e-5 -3e-5,0.024 0,0.072 -3e-5,3e-5 -3e-5,0.024 0,0.072 -3e-5,0.096 0.024,0.19203 0.072,0.288 0.096,0.048 0.23997,0.072 0.432,0.072 0.19197,3e-5 0.31197,-0.024 0.36,-0.072 0.096,-0.096 0.14397,-0.19197 0.144,-0.288 -3e-5,-0.048 -3e-5,-0.072 0,-0.072 -3e-5,-0.048 -3e-5,-0.072 0,-0.072 l 0,-9.432 c -3e-5,-3.11996 -1.12803,-5.80796 -3.384,-8.064 -2.20802,-2.25595 -4.87202,-3.38395 -7.992,-3.384 -3.12001,5e-5 -5.80801,1.12805 -8.064,3.384 -2.208,2.25604 -3.312,4.94404 -3.312,8.064 l 0,26.712 c 0,3.12001 1.104,5.80801 3.312,8.064 2.25599,2.256 4.94399,3.384 8.064,3.384 3.11998,0 5.78398,-1.128 7.992,-3.384 2.25597,-2.25599 3.38397,-4.94399 3.384,-8.064 l 0,0"
         style="fill:#7986cb;fill-opacity:1"
         id="path4028" />
      <path
         d="m 248.42552,365.67334 c -2e-5,0.672 -0.24002,1.296 -0.72,1.872 -0.48002,0.576 -1.20002,0.864 -2.16,0.864 l -10.944,0 c -2.35201,0 -4.36801,-0.84 -6.048,-2.52 -1.68,-1.68 -2.52,-3.696 -2.52,-6.048 l 0,-42.696 c 0,-0.95995 0.288,-1.67995 0.864,-2.16 0.576,-0.47995 1.2,-0.71995 1.872,-0.72 0.672,5e-5 1.29599,0.24005 1.872,0.72 0.57599,0.48005 0.86399,1.20005 0.864,2.16 l 0,42.696 c -1e-5,0.816 0.31199,1.536 0.936,2.16 0.62399,0.624 1.34399,0.936 2.16,0.936 l 10.944,0 c 0.95998,0 1.67998,0.288 2.16,0.864 0.47998,0.576 0.71998,1.2 0.72,1.872 l 0,0 m -3.168,-0.792 c -2e-5,-0.24 -0.048,-0.384 -0.144,-0.432 -0.096,-0.048 -0.21602,-0.072 -0.36,-0.072 l -10.944,0 c -1.48801,0 -2.76001,-0.504 -3.816,-1.512 -1.008,-1.056 -1.512,-2.328 -1.512,-3.816 l 0,-42.624 c 0,-0.14395 -0.024,-0.26395 -0.072,-0.36 -0.048,-0.14395 -0.192,-0.21595 -0.432,-0.216 -0.288,5e-5 -0.456,0.072 -0.504,0.216 -0.048,0.096 -0.072,0.21605 -0.072,0.36 l 0,42.624 c 0,1.728 0.624,3.24 1.872,4.536 1.29599,1.248 2.80799,1.872 4.536,1.872 l 10.944,0 c 0.14398,0 0.26398,-0.024 0.36,-0.072 0.096,-0.048 0.14398,-0.216 0.144,-0.504 l 0,0"
         style="fill:#7986cb;fill-opacity:1"
         id="path4030"
         inkscape:connector-curvature="0" />
      <path
         d="m 279.13495,355.00723 c -3e-5,3.74401 -1.34403,6.96 -4.032,9.648 -2.64002,2.64 -5.83202,3.96 -9.576,3.96 -3.69601,0 -6.88801,-1.32 -9.576,-3.96 -2.688,-2.688 -4.032,-5.90399 -4.032,-9.648 l 0,-26.784 c 0,-3.69596 1.344,-6.88796 4.032,-9.576 2.68799,-2.68795 5.87999,-4.03195 9.576,-4.032 3.74398,5e-5 6.93598,1.34405 9.576,4.032 2.68797,2.68804 4.03197,5.88004 4.032,9.576 l 0,26.784 0,0 m -3.024,-0.792 0,-26.712 c -3e-5,-3.11996 -1.12802,-5.80796 -3.384,-8.064 -2.20802,-2.25595 -4.87202,-3.38395 -7.992,-3.384 -3.12001,5e-5 -5.80801,1.12805 -8.064,3.384 -2.208,2.25604 -3.312,4.94404 -3.312,8.064 l 0,26.712 c 0,3.12001 1.104,5.80801 3.312,8.064 2.25599,2.256 4.94399,3.384 8.064,3.384 3.11998,0 5.78398,-1.128 7.992,-3.384 2.25598,-2.25599 3.38397,-4.94399 3.384,-8.064 l 0,0 m -1.008,0 c -3e-5,2.83201 -1.03202,5.28001 -3.096,7.344 -2.01602,2.016 -4.44002,3.024 -7.272,3.024 -2.83201,0 -5.28001,-1.008 -7.344,-3.024 -2.01601,-2.06399 -3.024,-4.51199 -3.024,-7.344 l 0,-26.712 c 0,-2.83196 1.00799,-5.25596 3.024,-7.272 2.06399,-2.06395 4.51199,-3.09595 7.344,-3.096 2.83198,5e-5 5.25598,1.03205 7.272,3.096 2.06398,2.01604 3.09597,4.44004 3.096,7.272 l 0,26.712 0,0 m -1.44,0.792 0,-26.784 c -2e-5,-2.20796 -0.79202,-4.10396 -2.376,-5.688 -1.58402,-1.63196 -3.50402,-2.44795 -5.76,-2.448 -2.20801,5e-5 -4.12801,0.81604 -5.76,2.448 -1.58401,1.58404 -2.37601,3.48004 -2.376,5.688 l 0,26.784 c -10e-6,2.20801 0.79199,4.12801 2.376,5.76 1.63199,1.584 3.55199,2.376 5.76,2.376 2.25598,0 4.17598,-0.792 5.76,-2.376 1.58398,-1.63199 2.37598,-3.55199 2.376,-5.76 l 0,0"
         style="fill:#5c6bc0;fill-opacity:1"
         id="path4032"
         inkscape:connector-curvature="0" />
      <path
         inkscape:connector-curvature="0"
         d="m 308.92525,317.1398 c -3e-5,0.67205 -0.24003,1.29605 -0.72,1.872 -0.48003,0.57605 -1.20003,0.86405 -2.16,0.864 l -7.272,0 0,45.792 c -2e-5,0.96 -0.28802,1.68 -0.864,2.16 -0.57602,0.432 -1.20001,0.648 -1.872,0.648 -0.048,0 -0.096,0 -0.144,0 -1e-5,0 -0.024,0 -0.072,0 -0.62401,-0.048 -1.22401,-0.288 -1.8,-0.72 -0.52801,-0.48 -0.79201,-1.176 -0.792,-2.088 l 0,-45.792 -7.272,0 c -0.96,5e-5 -1.68,-0.28795 -2.16,-0.864 -0.48,-0.57595 -0.72,-1.19995 -0.72,-1.872 0,-0.67195 0.24,-1.29595 0.72,-1.872 0.48,-0.57595 1.2,-0.86395 2.16,-0.864 l 20.088,0 c 0.95997,5e-5 1.67997,0.28805 2.16,0.864 0.47997,0.57605 0.71997,1.20005 0.72,1.872 l 0,0 m -3.168,-0.72 c -2e-5,-0.28795 -0.048,-0.45595 -0.144,-0.504 -0.096,-0.048 -0.21602,-0.072 -0.36,-0.072 l -20.088,0 c -0.144,5e-5 -0.264,0.024 -0.36,0.072 -0.096,0.048 -0.144,0.21605 -0.144,0.504 0,0.24005 0.048,0.38405 0.144,0.432 0.096,0.048 0.216,0.072 0.36,0.072 l 9.504,0 0,47.952 c -10e-6,0.144 0.024,0.288 0.072,0.432 0.048,0.096 0.21599,0.144 0.504,0.144 0.23999,0 0.38399,-0.048 0.432,-0.144 0.048,-0.144 0.072,-0.288 0.072,-0.432 l 0,-47.952 9.504,0 c 0.14398,5e-5 0.26398,-0.024 0.36,-0.072 0.096,-0.048 0.14398,-0.19195 0.144,-0.432 l 0,0"
         style="fill:#3f51b5;fill-opacity:1"
         id="path4036" />
      <path
         inkscape:connector-curvature="0"
         d="m 342.5155,365.6678 c -3e-5,0.96 -0.28803,1.68 -0.864,2.16 -0.57603,0.432 -1.20003,0.648 -1.872,0.648 -0.67203,0 -1.29603,-0.216 -1.872,-0.648 -0.57603,-0.48 -0.86403,-1.2 -0.864,-2.16 l 0,-13.032 -15.84,0 0,13.032 c -1e-5,0.96 -0.28801,1.68 -0.864,2.16 -0.57601,0.432 -1.20001,0.648 -1.872,0.648 -0.72001,0 -1.36801,-0.216 -1.944,-0.648 -0.57601,-0.48 -0.86401,-1.2 -0.864,-2.16 l 0,-13.032 -1.08,0 c -0.912,10e-6 -1.632,-0.28799 -2.16,-0.864 -0.48,-0.57599 -0.72,-1.19999 -0.72,-1.872 0,-0.67198 0.24,-1.29598 0.72,-1.872 0.528,-0.57598 1.248,-0.86398 2.16,-0.864 l 1.08,0 0,-30.024 c -10e-6,-0.95995 0.28799,-1.67995 0.864,-2.16 0.57599,-0.47995 1.22399,-0.71995 1.944,-0.72 0.67199,5e-5 1.29599,0.24005 1.872,0.72 0.57599,0.48005 0.86399,1.20005 0.864,2.16 l 0,30.024 15.84,0 0,-30.024 c -3e-5,-0.95995 0.28797,-1.67995 0.864,-2.16 0.57597,-0.47995 1.19997,-0.71995 1.872,-0.72 0.67197,5e-5 1.29597,0.24005 1.872,0.72 0.57597,0.48005 0.86397,1.20005 0.864,2.16 l 0,48.528 0,0 m -3.024,-0.792 0,-48.456 c -3e-5,-0.14395 -0.024,-0.26395 -0.072,-0.36 -0.048,-0.14395 -0.19203,-0.21595 -0.432,-0.216 -0.24003,5e-5 -0.38403,0.072 -0.432,0.216 -0.048,0.096 -0.072,0.21605 -0.072,0.36 l 0,32.256 c -0.048,-0.048 -0.096,-0.072 -0.144,-0.072 -3e-5,2e-5 -0.048,2e-5 -0.144,0 l -20.016,0 0,-32.184 c -1e-5,-0.14395 -0.024,-0.26395 -0.072,-0.36 -0.048,-0.14395 -0.21601,-0.21595 -0.504,-0.216 -0.24001,5e-5 -0.38401,0.072 -0.432,0.216 -0.048,0.096 -0.072,0.21605 -0.072,0.36 l 0,32.184 -3.312,0 c 0,2e-5 -0.024,2e-5 -0.072,0 0,2e-5 -0.024,2e-5 -0.072,0 -0.096,2e-5 -0.192,0.048 -0.288,0.144 -0.048,0.048 -0.072,0.16802 -0.072,0.36 0,0.24002 0.024,0.40802 0.072,0.504 0.096,0.048 0.192,0.072 0.288,0.072 0.048,2e-5 0.072,2e-5 0.072,0 0.048,2e-5 0.072,2e-5 0.072,0 l 3.312,0 0,15.192 c -10e-6,0.144 0.024,0.288 0.072,0.432 0.048,0.096 0.19199,0.144 0.432,0.144 0.28799,0 0.45599,-0.048 0.504,-0.144 0.048,-0.144 0.072,-0.288 0.072,-0.432 l 0,-15.192 20.016,0 c 0.096,2e-5 0.14397,2e-5 0.144,0 0.048,2e-5 0.096,-0.024 0.144,-0.072 l 0,15.264 c -3e-5,0.144 0.024,0.288 0.072,0.432 0.048,0.096 0.19197,0.144 0.432,0.144 0.23997,0 0.38397,-0.048 0.432,-0.144 0.048,-0.144 0.072,-0.288 0.072,-0.432 l 0,0"
         style="fill:#3f51b5;fill-opacity:1"
         id="path4038" />
      <path
         inkscape:connector-curvature="0"
         d="m 377.12612,357.8198 c -3e-5,2.88 -1.05603,5.376 -3.168,7.488 -2.06402,2.064 -4.56002,3.096 -7.488,3.096 l -16.704,0 0,-15.768 -1.224,0 c -0.912,10e-6 -1.608,-0.26399 -2.088,-0.792 -0.48,-0.57599 -0.744,-1.17599 -0.792,-1.8 0,-0.048 0,-0.072 0,-0.072 0,-0.048 0,-0.096 0,-0.144 0.048,-0.67198 0.312,-1.27198 0.792,-1.8 0.48,-0.57598 1.176,-0.86398 2.088,-0.864 l 1.224,0 0,-32.76 14.112,0 c 3.64798,5e-5 6.76798,1.29605 9.36001,3.888 2.59196,2.59204 3.88796,5.71204 3.88799,9.36 l 0,14.4 c -3e-5,1.48802 -0.31203,2.92802 -0.93599,4.32 -0.62404,1.34402 -1.48804,2.52002 -2.59201,3.528 1.10397,1.00801 1.96797,2.20801 2.59201,3.6 0.62396,1.34401 0.93596,2.78401 0.93599,4.32 l 0,0 m -2.808,-0.936 c -3e-5,-1.77599 -0.52802,-3.38399 -1.584,-4.824 -1.05602,-1.43999 -2.37602,-2.44798 -3.95999,-3.024 1.58397,-0.62398 2.90397,-1.63198 3.95999,-3.024 1.05598,-1.43998 1.58397,-3.04798 1.584,-4.824 l 0,-14.472 c -3e-5,-2.97596 -1.08002,-5.54396 -3.24,-7.704 -2.16002,-2.15995 -4.75202,-3.23995 -7.776,-3.24 l -11.37599,0 c -0.096,5e-5 -0.21601,0.048 -0.36001,0.144 -0.096,0.048 -0.168,0.12005 -0.216,0.216 0,0.048 0,0.096 0,0.144 0,5e-5 0,5e-5 0,0 l 0,32.256 -3.024,0 c -0.144,2e-5 -0.288,0.024 -0.432,0.072 -0.096,0.048 -0.144,0.19202 -0.14399,0.432 -1e-5,0.24002 0.048,0.38402 0.14399,0.432 0.144,0.048 0.288,0.072 0.432,0.072 l 3.024,0 0,15.264 c 0,0 0,0.024 0,0.072 0,0 0,0.024 0,0.072 0.048,0.048 0.096,0.12 0.144,0.216 0.096,0.048 0.168,0.096 0.216,0.144 0.048,0 0.072,0 0.072,0 0.048,0 0.072,0 0.072,0 l 14.04,0 c 2.30398,0 4.27198,-0.816 5.90401,-2.448 1.67997,-1.68 2.51996,-3.67199 2.51999,-5.976 l 0,0 m -1.07999,0 c -3e-5,2.01601 -0.72003,3.768 -2.16001,5.256 -1.44002,1.44 -3.16802,2.16 -5.184,2.16 l -13.536,0 0.072,-14.76 c 2.25599,2e-5 4.48799,2e-5 6.696,0 2.25599,2e-5 4.51199,2e-5 6.768,0 1.96798,2e-5 3.67198,0.72002 5.112,2.16 1.48798,1.44001 2.23198,3.16801 2.23201,5.184 l 0,0 m -1.656,0.936 c -3e-5,-1.39199 -0.50403,-2.59199 -1.512,-3.6 -1.00803,-1.05599 -2.20803,-1.58399 -3.60001,-1.584 l -11.23199,0 0,10.296 11.23199,0 c 1.39198,0 2.59198,-0.504 3.60001,-1.512 1.00797,-1.056 1.51197,-2.25599 1.512,-3.6 l 0,0 m 1.656,-16.632 c -3e-5,1.96802 -0.72003,3.69602 -2.16001,5.184 -1.44002,1.44002 -3.16802,2.16002 -5.184,2.16 l -13.464,0 0,-31.752 10.872,0 c 2.73598,5e-5 5.06398,0.98405 6.984,2.952 1.96798,1.96804 2.95198,4.29604 2.95201,6.984 -3e-5,2.40004 -3e-5,4.82403 0,7.272 -3e-5,2.40003 -3e-5,4.80003 0,7.2 l 0,0 m -1.656,0.864 0,-14.4 c -3e-5,-2.11196 -0.76803,-3.93596 -2.30401,-5.472 -1.48802,-1.53596 -3.28802,-2.30395 -5.4,-2.304 l -8.63999,0 0,27.288 11.15999,0 c 1.39198,2e-5 2.59198,-0.47998 3.60001,-1.44 1.05597,-1.00798 1.58397,-2.23198 1.584,-3.672 l 0,0"
         style="fill:#3f51b5;fill-opacity:1"
         id="path4040" />
      <path
         inkscape:connector-curvature="0"
         d="m 408.04113,354.7958 c -3e-5,3.74401 -1.34403,6.96 -4.03201,9.648 -2.64002,2.64 -5.83201,3.96 -9.57599,3.96 -3.69602,0 -6.88801,-1.32 -9.57601,-3.96 -2.688,-2.688 -4.032,-5.90399 -4.03199,-9.648 l 0,-26.784 c -10e-6,-3.69596 1.34399,-6.88796 4.03199,-9.576 2.688,-2.68795 5.87999,-4.03195 9.57601,-4.032 3.74398,5e-5 6.93597,1.34405 9.57599,4.032 2.68798,2.68804 4.03198,5.88004 4.03201,9.576 l 0,26.784 0,0 m -3.024,-0.792 0,-26.712 c -3e-5,-3.11996 -1.12803,-5.80796 -3.38401,-8.064 -2.20802,-2.25595 -4.87201,-3.38395 -7.992,-3.384 -3.12001,5e-5 -5.808,1.12805 -8.06399,3.384 -2.20801,2.25604 -3.31201,4.94404 -3.31201,8.064 l 0,26.712 c 0,3.12001 1.104,5.80801 3.31201,8.064 2.25599,2.256 4.94398,3.384 8.06399,3.384 3.11999,0 5.78398,-1.128 7.992,-3.384 2.25598,-2.25599 3.38398,-4.94399 3.38401,-8.064 l 0,0 m -1.00801,0 c -2e-5,2.83201 -1.03202,5.28001 -3.096,7.344 -2.01601,2.016 -4.44001,3.024 -7.272,3.024 -2.83201,0 -5.28,-1.008 -7.344,-3.024 -2.016,-2.06399 -3.024,-4.51199 -3.024,-7.344 l 0,-26.712 c 0,-2.83196 1.008,-5.25596 3.024,-7.272 2.064,-2.06395 4.51199,-3.09595 7.344,-3.096 2.83199,5e-5 5.25599,1.03205 7.272,3.096 2.06398,2.01604 3.09598,4.44004 3.096,7.272 l 0,26.712 0,0 m -1.44,0.792 0,-26.784 c -2e-5,-2.20796 -0.79202,-4.10396 -2.376,-5.688 -1.58401,-1.63196 -3.50401,-2.44795 -5.75999,-2.448 -2.20802,5e-5 -4.12802,0.81604 -5.76,2.448 -1.58401,1.58404 -2.37601,3.48004 -2.37601,5.688 l 0,26.784 c 0,2.20801 0.792,4.12801 2.37601,5.76 1.63198,1.584 3.55198,2.376 5.76,2.376 2.25598,0 4.17598,-0.792 5.75999,-2.376 1.58398,-1.63199 2.37598,-3.55199 2.376,-5.76 l 0,0"
         style="fill:#5c6bc0;fill-opacity:1"
         id="path4042" />
      <path
         inkscape:connector-curvature="0"
         d="m 442.582,365.6678 c -3e-5,0.912 -0.28803,1.608 -0.864,2.088 -0.52803,0.432 -1.10403,0.672 -1.728,0.72 -0.048,0 -0.096,0 -0.144,0 -3e-5,0 -0.024,0 -0.072,0 -0.67203,0 -1.29603,-0.216 -1.872,-0.648 -0.57603,-0.48 -0.86403,-1.2 -0.864,-2.16 l 0,-13.032 -16.128,0 0,13.032 c -1e-5,0.96 -0.28801,1.68 -0.864,2.16 -0.57601,0.432 -1.20001,0.648 -1.872,0.648 -0.67201,0 -1.29601,-0.216 -1.872,-0.648 -0.57601,-0.48 -0.86401,-1.2 -0.864,-2.16 l 0,-13.032 -1.224,0 c -0.912,10e-6 -1.632,-0.26399 -2.16,-0.792 -0.48,-0.57599 -0.72,-1.17599 -0.72,-1.8 0,-0.048 0,-0.072 0,-0.072 0,-0.048 0,-0.096 0,-0.144 0,-0.67198 0.24,-1.27198 0.72,-1.8 0.48,-0.57598 1.2,-0.86398 2.16,-0.864 l 1.224,0 0,-19.224 c -10e-6,-3.69596 1.31999,-6.86396 3.96,-9.504 2.68799,-2.68795 5.87998,-4.03195 9.576,-4.032 3.69598,5e-5 6.88797,1.34405 9.576,4.032 2.68797,2.64004 4.03197,5.80804 4.032,9.504 l 0,37.728 0,0 m -3.096,-0.504 0,-37.728 c -3e-5,-3.11996 -1.10403,-5.78396 -3.312,-7.992 -2.20802,-2.20795 -4.87202,-3.31195 -7.992,-3.312 -3.07202,5e-5 -5.73601,1.10405 -7.992,3.312 -2.20801,2.20804 -3.31201,4.87204 -3.312,7.992 l 0,21.456 -3.528,0 c 0,2e-5 -0.024,2e-5 -0.072,0 0,2e-5 -0.024,2e-5 -0.072,0 -0.096,2e-5 -0.192,0.048 -0.288,0.144 -0.048,0.048 -0.072,0.16802 -0.072,0.36 0,0.19202 0.024,0.33602 0.072,0.432 0.096,0.048 0.192,0.072 0.288,0.072 0.048,2e-5 0.072,2e-5 0.072,0 0.048,2e-5 0.072,2e-5 0.072,0 l 3.528,0 0,15.264 c -10e-6,0 -10e-6,0.024 0,0.072 -10e-6,0 -10e-6,0.024 0,0.072 -10e-6,0.096 0.024,0.192 0.072,0.288 0.096,0.048 0.23999,0.072 0.432,0.072 0.19199,0 0.31199,-0.024 0.36,-0.072 0.096,-0.096 0.14399,-0.192 0.144,-0.288 -1e-5,-0.048 -1e-5,-0.072 0,-0.072 -1e-5,-0.048 -1e-5,-0.072 0,-0.072 l 0,-15.264 20.592,0 0,15.264 c -3e-5,0 -3e-5,0.024 0,0.072 -3e-5,0 -3e-5,0.024 0,0.072 -3e-5,0.096 0.024,0.192 0.072,0.288 0.096,0.048 0.23997,0.072 0.432,0.072 0.19197,0 0.31197,-0.024 0.36,-0.072 0.096,-0.096 0.14397,-0.192 0.144,-0.288 -3e-5,-0.048 -3e-5,-0.072 0,-0.072 -3e-5,-0.048 -3e-5,-0.072 0,-0.072 l 0,0 m -1.008,-16.272 -20.592,0 0,-21.456 c -1e-5,-2.83196 1.00799,-5.25596 3.024,-7.272 2.06399,-2.01595 4.48798,-3.02395 7.272,-3.024 2.83198,5e-5 5.25598,1.00805 7.272,3.024 2.01597,2.01604 3.02397,4.44004 3.024,7.272 l 0,21.456 0,0 m -1.44,-1.728 0,-19.224 c -3e-5,-2.20796 -0.79203,-4.10396 -2.376,-5.688 -1.58402,-1.58396 -3.48002,-2.37595 -5.688,-2.376 -2.20802,5e-5 -4.10402,0.79204 -5.688,2.376 -1.58401,1.58404 -2.37601,3.48004 -2.376,5.688 l 0,19.224 16.128,0 0,0"
         style="fill:#5c6bc0;fill-opacity:1"
         id="path4044" />
      <path
         inkscape:connector-curvature="0"
         d="m 475.79088,365.6678 c -4e-5,0.912 -0.28804,1.608 -0.86401,2.088 -0.52802,0.432 -1.10402,0.672 -1.728,0.72 -0.048,0 -0.096,0 -0.144,0 -2e-5,0 -0.024,0 -0.072,0 -0.67202,-0.048 -1.29602,-0.288 -1.87199,-0.72 -0.52803,-0.48 -0.79203,-1.176 -0.79201,-2.088 l 0,-5.04 c -2e-5,-2.15999 -0.79202,-4.03199 -2.37599,-5.616 -1.58403,-1.58399 -3.48002,-2.37599 -5.688,-2.376 l -6.264,0 0,13.032 c -2e-5,0.912 -0.28802,1.608 -0.86401,2.088 -0.528,0.432 -1.104,0.672 -1.728,0.72 -0.048,0 -0.096,0 -0.14399,0 -1e-5,0 -0.024,0 -0.072,0 -0.67201,-0.048 -1.29601,-0.288 -1.87201,-0.72 -0.528,-0.48 -0.792,-1.176 -0.792,-2.088 l 0,-13.032 -1.152,0 c -0.912,10e-6 -1.608,-0.26399 -2.08799,-0.792 -0.48001,-0.57599 -0.74401,-1.17599 -0.79201,-1.8 0,-0.048 0,-0.072 0,-0.072 0,-0.048 0,-0.096 0,-0.144 0.048,-0.67198 0.312,-1.27198 0.79201,-1.8 0.47999,-0.57598 1.17599,-0.86398 2.08799,-0.864 l 1.152,0 0,-32.76 12.096,0 c 3.59998,5e-5 6.69598,1.29605 9.288,3.888 2.59198,2.59204 3.88797,5.71204 3.88801,9.36 l 0,11.808 c -4e-5,2.11202 -0.48004,4.10402 -1.44001,5.976 -0.96002,1.82402 -2.23202,3.33602 -3.816,4.536 1.58398,1.24801 2.85598,2.80801 3.816,4.68 0.95997,1.87201 1.43997,3.86401 1.44001,5.976 l 0,5.04 0,0 m -3.024,-0.792 0,-4.968 c -3e-5,-2.49599 -0.74403,-4.70399 -2.23201,-6.624 -1.48802,-1.96799 -3.36002,-3.33598 -5.61599,-4.104 2.25597,-0.67198 4.12797,-1.96798 5.61599,-3.888 1.48798,-1.96798 2.23198,-4.17598 2.23201,-6.624 l 0,-11.808 c -3e-5,-2.97596 -1.08003,-5.54396 -3.24,-7.704 -2.16003,-2.20795 -4.72802,-3.31195 -7.70401,-3.312 l -9.36,0 c -0.144,5e-5 -0.264,0.072 -0.36,0.216 -0.096,0.096 -0.144,0.21605 -0.144,0.36 l 0,32.184 -3.38399,0 c -0.14401,2e-5 -0.26401,0.024 -0.36001,0.072 -0.096,0.048 -0.144,0.19202 -0.144,0.432 0,0.28802 0.048,0.45602 0.144,0.504 0.096,0.048 0.216,0.072 0.36001,0.072 l 3.38399,0 -0.072,15.192 c 0,0.144 0.024,0.288 0.072,0.432 0.048,0.096 0.216,0.144 0.504,0.144 0.24,0 0.384,-0.048 0.43201,-0.144 0.048,-0.144 0.072,-0.288 0.072,-0.432 l 0,-15.192 8.49599,0 c 2.83199,2e-5 5.25598,1.00801 7.272,3.024 2.01598,1.96801 3.02398,4.36801 3.024,7.2 l 0,4.968 c -2e-5,0.144 0.024,0.288 0.072,0.432 0.048,0.096 0.19198,0.144 0.432,0.144 0.23998,0 0.38398,-0.048 0.43201,-0.144 0.048,-0.144 0.072,-0.288 0.072,-0.432 l 0,0 m -1.00801,-26.208 c -2e-5,2.83202 -1.03202,5.20802 -3.096,7.128 -2.01602,1.87202 -4.41601,2.80802 -7.2,2.808 l -8.49599,0 0,-31.68 8.85599,0 c 2.68799,5e-5 5.01598,0.98405 6.984,2.952 1.96798,1.92004 2.95198,4.24804 2.952,6.984 l 0,11.808 0,0 m -1.44,0.792 0,-11.808 c -2e-5,-2.11196 -0.76802,-3.93596 -2.30399,-5.472 -1.48803,-1.53596 -3.28802,-2.30395 -5.40001,-2.304 l -6.62399,0 0,27.288 6.62399,0 c 2.11199,2e-5 3.91198,-0.76798 5.40001,-2.304 1.53597,-1.53598 2.30397,-3.33598 2.30399,-5.4 l 0,0"
         style="fill:#7986cb;fill-opacity:1"
         id="path4046" />
      <path
         inkscape:connector-curvature="0"
         d="m 506.194,354.7958 c -3e-5,3.74401 -1.34403,6.96 -4.032,9.648 -2.64002,2.64 -5.83202,3.96 -9.576,3.96 l -13.608,0 0,-54 13.608,0 c 3.74398,5e-5 6.93598,1.34405 9.576,4.032 2.68797,2.68804 4.03197,5.88004 4.032,9.576 l 0,26.784 0,0 m -3.024,-0.792 0,-26.712 c -3e-5,-3.11996 -1.12802,-5.80796 -3.384,-8.064 -2.20802,-2.25595 -4.87202,-3.38395 -7.992,-3.384 l -10.872,0 c -0.144,5e-5 -0.264,0.072 -0.36,0.216 -0.096,0.096 -0.144,0.21605 -0.144,0.36 l 0,48.456 c 0,0.144 0.048,0.288 0.144,0.432 0.096,0.096 0.216,0.144 0.36,0.144 l 10.872,0 c 3.11998,0 5.78398,-1.128 7.992,-3.384 2.25598,-2.25599 3.38397,-4.94399 3.384,-8.064 l 0,0 m -1.008,0 c -2e-5,2.83201 -1.03202,5.28001 -3.096,7.344 -2.01602,2.016 -4.44002,3.024 -7.272,3.024 l -10.368,0 0,-47.448 10.368,0 c 2.83198,5e-5 5.25598,1.03205 7.272,3.096 2.06398,2.01604 3.09598,4.44004 3.096,7.272 l 0,26.712 0,0 m -1.44,0.792 0,-26.784 c -2e-5,-2.20796 -0.79202,-4.10396 -2.376,-5.688 -1.58402,-1.63196 -3.50402,-2.44795 -5.76,-2.448 l -8.136,0 0,43.056 8.136,0 c 2.25598,0 4.17598,-0.792 5.76,-2.376 1.58398,-1.63199 2.37598,-3.55199 2.376,-5.76 l 0,0"
         style="fill:#7986cb;fill-opacity:1"
         id="path4048" />
    </g>
  </g>
</svg>
