<?xml version="1.0" encoding="UTF-8" standalone="no"?>
<!-- Created with Inkscape (http://www.inkscape.org/) -->

<svg
   xmlns:dc="http://purl.org/dc/elements/1.1/"
   xmlns:cc="http://creativecommons.org/ns#"
   xmlns:rdf="http://www.w3.org/1999/02/22-rdf-syntax-ns#"
   xmlns:svg="http://www.w3.org/2000/svg"
   xmlns="http://www.w3.org/2000/svg"
   xmlns:sodipodi="http://sodipodi.sourceforge.net/DTD/sodipodi-0.dtd"
   xmlns:inkscape="http://www.inkscape.org/namespaces/inkscape"
   width="30.816"
   height="54.216"
   id="svg3037"
   version="1.1"
   inkscape:version="0.48.4 r9939"
   sodipodi:docname="New document 5">
  <defs
     id="defs3039" />
  <sodipodi:namedview
     id="base"
     pagecolor="#ffffff"
     bordercolor="#666666"
     borderopacity="1.0"
     inkscape:pageopacity="0.0"
     inkscape:pageshadow="2"
     inkscape:zoom="0.35"
     inkscape:cx="-83.87771"
     inkscape:cy="-121.46343"
     inkscape:document-units="px"
     inkscape:current-layer="layer1"
     showgrid="false"
     fit-margin-top="0"
     fit-margin-left="0"
     fit-margin-right="0"
     fit-margin-bottom="0"
     inkscape:window-width="1321"
     inkscape:window-height="744"
     inkscape:window-x="45"
     inkscape:window-y="24"
     inkscape:window-maximized="1" />
  <metadata
     id="metadata3042">
    <rdf:RDF>
      <cc:Work
         rdf:about="">
        <dc:format>image/svg+xml</dc:format>
        <dc:type
           rdf:resource="http://purl.org/dc/dcmitype/StillImage" />
        <dc:title></dc:title>
      </cc:Work>
    </rdf:RDF>
  </metadata>
  <g
     inkscape:label="Layer 1"
     inkscape:groupmode="layer"
     id="layer1"
     transform="translate(-458.87771,-356.68275)">
    <path
       inkscape:connector-curvature="0"
       d="m 489.69371,408.09075 c -3e-5,0.96 -0.28803,1.68 -0.864,2.16 -0.57603,0.432 -1.20003,0.648 -1.872,0.648 -0.67203,0 -1.29603,-0.216 -1.872,-0.648 -0.57603,-0.48 -0.86403,-1.2 -0.864,-2.16 l 0,-13.032 -15.84,0 0,13.032 c -10e-6,0.96 -0.28801,1.68 -0.864,2.16 -0.57601,0.432 -1.20001,0.648 -1.872,0.648 -0.72001,0 -1.36801,-0.216 -1.944,-0.648 -0.57601,-0.48 -0.86401,-1.2 -0.864,-2.16 l 0,-13.032 -1.08,0 c -0.912,1e-5 -1.632,-0.28799 -2.16,-0.864 -0.48,-0.57599 -0.72,-1.19999 -0.72,-1.872 0,-0.67198 0.24,-1.29598 0.72,-1.872 0.528,-0.57598 1.248,-0.86398 2.16,-0.864 l 1.08,0 0,-30.024 c -1e-5,-0.95995 0.28799,-1.67995 0.864,-2.16 0.57599,-0.47995 1.22399,-0.71995 1.944,-0.72 0.67199,5e-5 1.29599,0.24005 1.872,0.72 0.57599,0.48005 0.86399,1.20005 0.864,2.16 l 0,30.024 15.84,0 0,-30.024 c -3e-5,-0.95995 0.28797,-1.67995 0.864,-2.16 0.57597,-0.47995 1.19997,-0.71995 1.872,-0.72 0.67197,5e-5 1.29597,0.24005 1.872,0.72 0.57597,0.48005 0.86397,1.20005 0.864,2.16 l 0,48.528 0,0 m -3.024,-0.792 0,-48.456 c -3e-5,-0.14395 -0.024,-0.26395 -0.072,-0.36 -0.048,-0.14395 -0.19203,-0.21595 -0.432,-0.216 -0.24003,5e-5 -0.38403,0.072 -0.432,0.216 -0.048,0.096 -0.072,0.21605 -0.072,0.36 l 0,32.256 c -0.048,-0.048 -0.096,-0.072 -0.144,-0.072 -3e-5,2e-5 -0.048,2e-5 -0.144,0 l -20.016,0 0,-32.184 c -10e-6,-0.14395 -0.024,-0.26395 -0.072,-0.36 -0.048,-0.14395 -0.21601,-0.21595 -0.504,-0.216 -0.24001,5e-5 -0.38401,0.072 -0.432,0.216 -0.048,0.096 -0.072,0.21605 -0.072,0.36 l 0,32.184 -3.312,0 c 0,2e-5 -0.024,2e-5 -0.072,0 0,2e-5 -0.024,2e-5 -0.072,0 -0.096,2e-5 -0.192,0.048 -0.288,0.144 -0.048,0.048 -0.072,0.16802 -0.072,0.36 0,0.24002 0.024,0.40802 0.072,0.504 0.096,0.048 0.192,0.072 0.288,0.072 0.048,2e-5 0.072,2e-5 0.072,0 0.048,2e-5 0.072,2e-5 0.072,0 l 3.312,0 0,15.192 c -1e-5,0.144 0.024,0.288 0.072,0.432 0.048,0.096 0.19199,0.144 0.432,0.144 0.28799,0 0.45599,-0.048 0.504,-0.144 0.048,-0.144 0.072,-0.288 0.072,-0.432 l 0,-15.192 20.016,0 c 0.096,2e-5 0.14397,2e-5 0.144,0 0.048,2e-5 0.096,-0.024 0.144,-0.072 l 0,15.264 c -3e-5,0.144 0.024,0.288 0.072,0.432 0.048,0.096 0.19197,0.144 0.432,0.144 0.23997,0 0.38397,-0.048 0.432,-0.144 0.048,-0.144 0.072,-0.288 0.072,-0.432 l 0,0"
       style="font-size:40px;font-style:normal;font-weight:normal;line-height:125%;letter-spacing:0px;word-spacing:0px;fill:#3f51b5;fill-opacity:1;stroke:none;font-family:Sans"
       id="path4038" />
  </g>
</svg>
